<svg aria-hidden="true" style="position: absolute; width: 0; height: 0; overflow: hidden;" version="1.1" xmlns="http://www.w3.org/2000/svg" xmlns:xlink="http://www.w3.org/1999/xlink">
<defs>
<symbol id="icon-star" viewBox="0 0 96 96">
<path d="M95.656 34.886c-0.429-1.35-1.256-2.539-2.373-3.411s-2.471-1.386-3.885-1.475l-25.457-1.757-9.429-23.786c-0.515-1.31-1.411-2.435-2.573-3.229s-2.534-1.222-3.942-1.228c-1.407 0.005-2.781 0.433-3.942 1.228s-2.057 1.92-2.572 3.229l-9.6 23.914-25.286 1.629c-1.413 0.095-2.763 0.611-3.879 1.482s-1.944 2.057-2.378 3.404c-0.446 1.368-0.472 2.838-0.075 4.22s1.199 2.615 2.303 3.537l19.457 16.457-5.786 22.757c-0.4 1.539-0.328 3.164 0.207 4.662s1.508 2.8 2.793 3.738c1.247 0.895 2.733 1.398 4.268 1.443s3.048-0.367 4.347-1.186l20.1-12.728h0.086l21.643 13.671c1.11 0.721 2.404 1.108 3.728 1.114 1.081-0.008 2.146-0.265 3.113-0.749s1.809-1.184 2.463-2.045c0.654-0.861 1.102-1.86 1.309-2.921s0.169-2.156-0.113-3.2l-6.128-24.9 19.371-16.114c1.104-0.922 1.906-2.154 2.303-3.537s0.371-2.853-0.075-4.22z"></path>
</symbol>
<symbol id="icon-logo" viewBox="0 0 198 96">
<path d="M115.499 64.317c-5.275 1.205-11.853-6.314-4.315-14.567 7.4-8.103 22.562-11.896 26.875-1.771 1.258 2.637 1.256 5.724 1.219 8.6-0.028 1.773 0.056 4.321-0.058 6.064l-0.017 0.374v0.095c-0.201 1.896 1.172 4.095 3.512 4.439 1.877 0.32 3.751-0.817 4.427-2.416 0.227-0.516 0.459-1.028 0.697-1.535 0 0.028 0 0.056-0.001 0.079 0.001-0.019 0.004-0.043 0.004-0.043s0.001-0.037 0.001-0.045c0.474-1.012 0.974-2.014 1.51-3.001 1.927-3.579 4.26-7.048 7.203-9.849 0.821-0.782 2.023-1.75 2.873-2.109 0.472 0.047 0.832 0.258 1.146 0.647 2.954 4.018 1.302 13.512 5.007 17.119 1.789 1.831 4.647 2.006 6.744 0.58 1.567-1.051 2.593-2.429 3.603-3.766 2.454-3.289 4.604-6.838 7.619-9.392 1.421-1.171 2.954-1.988 4.686-1.27 0.018 0.011 0.040 0.017 0.067 0.021 0.025-0.002 0.033 0.030 0.057 0.037 0.018 0.015 0.043 0.011 0.065 0.030 0.019 0.021 0.039 0.041 0.064 0.056 0.065 0.032 0.095 0.105 0.157 0.146 0.448 0.531 0.634 1.116 0.935 2.044 0.71 2.704 0.721 5.743 0.689 8.596-0.063 3.186-0.323 6.614-0.358 9.832-0.174 4.164 5.736 4.734 6.31 0.572 0.68-6.844 2.040-13.871 0.467-20.758-0.683-2.938-2.445-6.038-5.432-7.309-1.416-0.634-2.957-0.954-4.518-0.939-6.845 0.168-11.289 6.494-14.815 11.451-0.544 0.748-1.087 1.559-1.651 2.334-0.303-2.193-0.487-4.46-0.904-6.73-0.641-3.682-2.143-7.842-5.739-9.8-1.83-0.989-3.976-1.451-6.005-0.967-1.094 0.269-2.138 0.776-3.090 1.352-2.886 1.866-5.511 4.353-7.827 7.147-1.938-7.384-6.351-13.473-14.958-14.879-7.507-1.182-16.352 1.709-22.759 6.943l-0.001-0.001c-3.779 3.093-6.733 7.016-8.034 11.411-1.206 4.018-0.655 8.804 1.755 12.371 2.483 3.611 6.24 6.567 10.724 7.134 1.311 0.165 2.621 0.093 3.875-0.176l-1.808-8.151z"></path>
<path d="M118.348 44.367c-10.516-5.417-27.412-5.387-37.639 0.582-5.514 3.092-9.302 8.142-10.233 14.354-0.14 0.981-0.207 1.985-0.191 3.012-0.085 5.026 2.903 9.826 7.283 12.233 3.322 1.856 7.187 2.138 10.545 0.935l-2.313-6.645c-4.802 1.794-12.336-3.562-7.627-13.107 2.595-4.523 7.425-6.442 7.425-6.442l0.005-0.002c5.853-2.631 13.072-2.461 19.365-1.218 2.679 0.529 7.096 1.73 9.463 3.114 3.577 1.771 6.553 6.255 4.787 10.008-0.798 1.545-2.142 2.738-3.829 3.126l1.808 8.151c4.040-0.869 7.681-3.792 9.454-7.522 3.833-7.852-0.885-16.99-8.305-20.578z"></path>
<path d="M87.981 75.489c1.533-0.558 3.022-1.437 4.275-2.556 5.53-4.839 5.2-12.854 0.784-18.325-1.898-2.371-4.525-4.195-7.399-5.306l-0.079-0.032c-4.070-1.666-9.488-0.867-9.496-0.865-9.8 1.781-17.268 11.194-24.395 17.51-1.115 0.959-2.153 1.821-3.357 2.481-0.338 0.189-0.648 0.318-0.883 0.389-0.239 0.073-0.39 0.082-0.439 0.079-0.020-0.001-0.034-0.003-0.041-0.006-1.322-0.533-1.891-1.449-2.237-2.913-0.396-1.728-0.405-3.949-0.405-5.81-0.116-17.259 3.407-34.373 9.481-50.504 0.672-1.804-0.222-3.824-2.022-4.533-1.824-0.72-3.887 0.172-4.608 1.993-3.327 8.377-6.023 17.081-7.84 26.018-1.813 8.893-2.685 17.983-2.732 27.061-0.011 4.065 0.058 8.531 2.58 12.074 1.346 1.885 3.342 3.33 5.541 4.024 1.544 0.505 3.535 0.385 4.907-0.054 2.752-0.836 5.048-2.646 7.108-4.417 5.996-5.205 11.634-12.439 18.907-15.473 0 0 1.374-0.591 2.544-0.591 1.389 0 2.205 0.131 3.527 0.466 3.927 0.711 8.034 4.198 7.379 8.291-0.395 1.994-1.543 3.645-3.417 4.358l2.319 6.642z"></path>
<path d="M14.64 78.886c2.193-0.181 4.329-0.889 6.248-1.983 6.315-3.393 11.269-10.021 12.424-17.122 0.765-4.919-0.11-10.507-4.008-14.007h0.002c-3.408-3.049-8.508-3.455-12.608-1.761-5.631 2.319-11.843 10.178-12.017 19.695l7.98 7.218c-1.163-1.595-1.415-2.968-1.578-3.496-1.208-3.491 0.29-7.122 2.341-10.016 1.065-1.513 2.359-2.896 3.786-4.044 1.122-0.912 2.314-1.578 3.741-1.653 1.307-0.105 2.625 0.129 3.395 1.264 2.146 3.446 0.643 8.956-1.593 12.093-0.742 1.064-1.615 2.014-2.604 2.825-0.641 0.535-1.372 0.963-2.154 1.247-0.773 0.28-1.711 0.432-2.578 0.426l-0.778 9.314z"></path>
<path d="M15.672 69.572c-0.837-0.007-1.988-0.189-2.813-0.557-1.93-0.923-2.912-3.131-3.613-5.342 0 0-0.595-1.698-0.733-4.547 0.057-3.66 0.066-7.251 0.637-10.738 2.589-14.462 7.072-28.546 12.041-42.364 1.458-4.431-4.718-6.796-6.612-2.573-6.070 15.254-11.798 30.907-13.759 47.345-0.381 3.201-0.598 6.482-0.581 9.726 0.030 5.312 1.069 11.022 5.111 14.875 2.807 2.644 6.23 3.739 9.543 3.488l0.778-9.314z"></path>
<path d="M86.472 77.526c-1.107 0.719-1.698 0.744-2.285 0.728-1.3-0.037-1.782-0.519-2.461-1.313-0.386-0.452-0.598-1.898-0.626-2.087-0.126-0.84-0.123-1.68 0.063-2.51 0.236-1.055 0.783-1.913 1.685-2.527 1.508-1.026 3.28-0.721 4.355 0.751 0.559 0.766 0.821 1.641 0.881 2.577 0.038 0.606 0.049 1.214-0.191 1.795-0.067 0.163-0.471 1.97-1.421 2.587z"></path>
<path d="M113.278 72.494c-0.305-0.367-0.825-1.428-0.894-1.879-0.107-0.698-0.169-1.396-0.079-2.104 0.133-1.050 0.548-1.95 1.344-2.664 1.518-1.36 3.756-0.934 4.647 0.898 0.524 1.076 0.582 2.226 0.434 3.389-0.070 0.546-0.072 1.684-0.874 2.709-0.852 1.088-3.514 0.931-4.578-0.348z"></path>
<path d="M82.504 72.622c-0.588 0-1.176 0.014-1.763-0.003-1.3-0.037-2.571-0.265-3.797-0.698-0.384-0.135-0.769-0.313-1.097-0.549-1.051-0.758-0.949-2.12 0.181-2.756 0.37-0.208 0.746-0.167 1.138-0.060 0.716 0.197 1.439 0.371 2.159 0.558 0.2 0.052 3.064 1.112 7.174 0.067 0.227-0.058 0.463-0.087 0.686-0.158 0.969-0.309 1.945-0.598 2.897-0.952 0.596-0.222 1.145-0.202 1.705 0.058 0.415 0.193 0.623 0.519 0.617 0.978-0.009 0.741-0.287 1.335-0.953 1.704-1.43 0.794-2.932 1.409-4.555 1.668-1.455 0.232-2.921 0.296-4.392 0.141z"></path>
<path d="M111.35 67.99c-1.408 0.076-2.662-0.362-3.828-1.115-0.575-0.372-0.94-0.88-1.034-1.563-0.081-0.594 0.128-1.075 0.609-1.436 0.475-0.356 0.965-0.47 1.534-0.189 0.578 0.286 1.193 0.495 1.776 0.773 1.481 0.706 4.457 1.019 7.188-0.434 0.759-0.403 1.45-0.766 1.939-1.453 0.359-0.504 0.814-0.827 1.433-0.929 0.923-0.153 1.731 0.482 1.782 1.417 0.023 0.425-0.1 0.814-0.3 1.18-0.403 0.739-0.987 1.31-1.687 1.766-1.165 0.759-2.457 1.205-3.805 1.494-1.248 0.267-2.511 0.394-3.791 0.383-0.605-0.005-1.211 0.069-1.816 0.108z"></path>
<path d="M113.669 44.569c0.636 0.099 1.287 0.14 1.904 0.308 1.202 0.327 2.282 0.924 3.269 1.682 0.155 0.119 0.3 0.254 0.43 0.398 0.745 0.824 0.46 1.869-0.368 2.428-0.353 0.239-0.75 0.196-1.134 0.081-0.506-0.151-1.007-0.32-1.51-0.482-2.292-0.741-4.519-0.493-6.697 0.451-0.341 0.148-0.678 0.306-1.011 0.472-0.564 0.283-1.053 0.159-1.515-0.234-0.471-0.4-0.7-0.886-0.59-1.504 0.082-0.458 0.336-0.83 0.636-1.173 0.676-0.774 1.535-1.273 2.492-1.6 1.322-0.452 2.685-0.706 4.092-0.828z"></path>
<path d="M83.535 52.982c-1.903 0.071-3.692 0.496-5.36 1.404-0.188 0.103-0.381 0.207-0.585 0.27-0.454 0.141-0.919-0.037-1.125-0.404-0.227-0.404-0.119-0.871 0.285-1.201 0.090-0.074 0.19-0.14 0.292-0.196 1.579-0.862 3.245-1.418 5.049-1.612 1.501-0.161 2.966-0.032 4.432 0.252 0.152 0.030 0.308 0.068 0.446 0.135 0.414 0.201 0.6 0.579 0.519 1.014-0.076 0.406-0.426 0.707-0.877 0.73-0.154 0.008-0.31-0.027-0.465-0.047-0.871-0.114-1.741-0.231-2.612-0.346z"></path>
</symbol>
<symbol id="icon-g" viewBox="0 0 96 96">
<path d="M48.016 0c-26.516 0-48.016 21.492-48.016 48s21.5 48 48.016 48c40.040 0 49.061-37.172 45.305-56h-45.32v16h30.953c-3.558 13.793-16.049 24-30.953 24-17.672 0-32-14.328-32-32s14.328-32 32-32c8.036 0 15.357 2.983 20.977 7.875l11.367-11.359c-8.536-7.776-19.876-12.516-32.328-12.516z"></path>
</symbol>
<symbol id="icon-add" viewBox="0 0 96 96">
<path stroke-linejoin="miter" stroke-linecap="butt" stroke-miterlimit="4" stroke-width="6" d="M48 93c24.853 0 45-20.147 45-45s-20.147-45-45-45c-24.853 0-45 20.147-45 45s20.147 45 45 45z"></path>
<path stroke-linejoin="round" stroke-linecap="square" stroke-miterlimit="4" stroke-width="6" d="M29.14 48h37.714"></path>
<path stroke-linejoin="round" stroke-linecap="square" stroke-miterlimit="4" stroke-width="6" d="M47.998 29.137v37.714"></path>
</symbol>
<symbol id="icon-arrow" viewBox="0 0 103 96">
<path d="M95.109 53.097l-39.429 39.337c-3.632-3.507-6.102-6.226-9.737-9.737l27.771-27.84h-73.714c0-4.806 0-8.908 0-13.714h73.714l-27.771-27.977c3.615-3.492 6.1-6.224 9.737-9.737l39.429 39.474c2.904 2.827 2.916 7.378 0 10.194z"></path>
</symbol>
<symbol id="icon-close" viewBox="0 0 96 96">
<path stroke-linejoin="round" stroke-linecap="round" stroke-miterlimit="4" stroke-width="9" d="M72 24l-48 48"></path>
<path stroke-linejoin="round" stroke-linecap="round" stroke-miterlimit="4" stroke-width="9" d="M24 24l48 48"></path>
</symbol>
<symbol id="icon-burger" viewBox="0 0 140 96">
<path stroke-linejoin="round" stroke-linecap="round" stroke-miterlimit="4" stroke-width="13.0909" d="M5.881 87.461h128.895M5.881 46.845h128.895M5.881 6.23h128.895"></path>
</symbol>
</defs>
</svg>
